<?xml version="1.0" encoding="UTF-8"?>
<!DOCTYPE svg PUBLIC "-//W3C//DTD SVG 1.1//EN" "http://www.w3.org/Graphics/SVG/1.1/DTD/svg11.dtd">
<svg xmlns="http://www.w3.org/2000/svg" version="1.1" width="24px" height="18px" style="shape-rendering:geometricPrecision; text-rendering:geometricPrecision; image-rendering:optimizeQuality; fill-rule:evenodd; clip-rule:evenodd;" xmlns:xlink="http://www.w3.org/1999/xlink">
<g><path style="opacity:1" fill="#f8f7f7" d="M 7.5,-0.5 C 9.5,-0.5 11.5,-0.5 13.5,-0.5C 13.8417,0.338246 14.5084,0.67158 15.5,0.5C 15.5,0.833333 15.5,1.16667 15.5,1.5C 15.5,6.5 15.5,11.5 15.5,16.5C 15.5,16.8333 15.5,17.1667 15.5,17.5C 13.5,17.5 11.5,17.5 9.5,17.5C 9.15829,16.6618 8.49162,16.3284 7.5,16.5C 7.5,10.8333 7.5,5.16667 7.5,-0.5 Z"/></g>
<g><path style="opacity:1" fill="#e82230" d="M 15.5,1.5 C 17.8333,1.5 20.1667,1.5 22.5,1.5C 22.8266,6.21369 22.4933,10.8804 21.5,15.5C 19.5914,16.3482 17.5914,16.6816 15.5,16.5C 15.5,11.5 15.5,6.5 15.5,1.5 Z"/></g>
<g><path style="opacity:1" fill="#032995" d="M 0.5,-0.5 C 2.83333,-0.5 5.16667,-0.5 7.5,-0.5C 7.5,5.16667 7.5,10.8333 7.5,16.5C 5.58533,16.2155 3.91866,16.5489 2.5,17.5C 1.5,17.5 0.5,17.5 -0.5,17.5C -0.5,11.8333 -0.5,6.16667 -0.5,0.5C 0.166667,0.5 0.5,0.166667 0.5,-0.5 Z"/></g>
<g><path style="opacity:0.745" fill="#b01822" d="M 20.5,-0.5 C 21.5,-0.5 22.5,-0.5 23.5,-0.5C 23.5,5.16667 23.5,10.8333 23.5,16.5C 22.8333,16.5 22.5,16.8333 22.5,17.5C 20.1667,17.5 17.8333,17.5 15.5,17.5C 15.5,17.1667 15.5,16.8333 15.5,16.5C 17.5914,16.6816 19.5914,16.3482 21.5,15.5C 22.4933,10.8804 22.8266,6.21369 22.5,1.5C 20.1667,1.5 17.8333,1.5 15.5,1.5C 15.5,1.16667 15.5,0.833333 15.5,0.5C 17.4147,0.784479 19.0813,0.451145 20.5,-0.5 Z"/></g>
</svg>
