<?xml version="1.0" encoding="UTF-8"?>
<!DOCTYPE svg PUBLIC "-//W3C//DTD SVG 1.1//EN" "http://www.w3.org/Graphics/SVG/1.1/DTD/svg11.dtd">
<svg xmlns="http://www.w3.org/2000/svg" version="1.1" width="24px" height="18px" style="shape-rendering:geometricPrecision; text-rendering:geometricPrecision; image-rendering:optimizeQuality; fill-rule:evenodd; clip-rule:evenodd" xmlns:xlink="http://www.w3.org/1999/xlink">
<g><path style="opacity:0.827" fill="#57496e" d="M 0.5,-0.5 C 3.5,-0.5 6.5,-0.5 9.5,-0.5C 9.5,0.166667 9.5,0.833333 9.5,1.5C 9.16667,1.5 8.83333,1.5 8.5,1.5C 6.16667,0.166667 3.83333,0.166667 1.5,1.5C 0.833333,1.5 0.5,1.16667 0.5,0.5C 0.5,0.166667 0.5,-0.166667 0.5,-0.5 Z"/></g>
<g><path style="opacity:1" fill="#65648d" d="M 1.5,1.5 C 3.83333,0.166667 6.16667,0.166667 8.5,1.5C 7.24382,1.46141 6.24382,1.96141 5.5,3C 7.02669,4.03191 8.36003,5.19858 9.5,6.5C 9.5,6.83333 9.5,7.16667 9.5,7.5C 7.90097,7.76781 6.56764,7.43448 5.5,6.5C 5.5,5.83333 5.16667,5.5 4.5,5.5C 3.40191,4.60305 3.40191,3.76971 4.5,3C 3.9558,2.28281 3.28913,1.78281 2.5,1.5C 2.16667,1.5 1.83333,1.5 1.5,1.5 Z"/></g>
<g><path style="opacity:1" fill="#952937" d="M 9.5,-0.5 C 10.8333,-0.5 12.1667,-0.5 13.5,-0.5C 13.8417,0.338246 14.5084,0.67158 15.5,0.5C 15.5,0.833333 15.5,1.16667 15.5,1.5C 15.1667,1.5 14.8333,1.5 14.5,1.5C 12.8333,1.5 11.1667,1.5 9.5,1.5C 9.5,0.833333 9.5,0.166667 9.5,-0.5 Z"/></g>
<g><path style="opacity:0.878" fill="#8d1f2d" d="M 20.5,-0.5 C 21.5,-0.5 22.5,-0.5 23.5,-0.5C 23.5,-0.166667 23.5,0.166667 23.5,0.5C 20.9455,1.38803 18.2788,1.72137 15.5,1.5C 15.5,1.16667 15.5,0.833333 15.5,0.5C 17.4147,0.784479 19.0813,0.451145 20.5,-0.5 Z"/></g>
<g><path style="opacity:1" fill="#5a5983" d="M -0.5,0.5 C -0.166667,0.5 0.166667,0.5 0.5,0.5C 0.5,1.16667 0.833333,1.5 1.5,1.5C 1.83333,1.5 2.16667,1.5 2.5,1.5C 2.16667,2.16667 1.83333,2.83333 1.5,3.5C 1.43605,4.36524 1.10272,5.36524 0.5,6.5C 0.166667,6.5 -0.166667,6.5 -0.5,6.5C -0.5,4.5 -0.5,2.5 -0.5,0.5 Z"/></g>
<g><path style="opacity:1" fill="#77698d" d="M 8.5,1.5 C 8.83333,1.5 9.16667,1.5 9.5,1.5C 9.5,1.83333 9.5,2.16667 9.5,2.5C 9.5,2.83333 9.5,3.16667 9.5,3.5C 9.5,4.16667 9.5,4.83333 9.5,5.5C 9.5,5.83333 9.5,6.16667 9.5,6.5C 8.36003,5.19858 7.02669,4.03191 5.5,3C 6.24382,1.96141 7.24382,1.46141 8.5,1.5 Z"/></g>
<g><path style="opacity:1" fill="#ebcbcf" d="M 9.5,2.5 C 9.5,2.16667 9.5,1.83333 9.5,1.5C 11.1667,1.5 12.8333,1.5 14.5,1.5C 16.1667,2.16667 17.8333,2.83333 19.5,3.5C 16.1194,3.54046 12.7861,3.20713 9.5,2.5 Z"/></g>
<g><path style="opacity:1" fill="#737298" d="M 2.5,1.5 C 3.28913,1.78281 3.9558,2.28281 4.5,3C 3.40191,3.76971 3.40191,4.60305 4.5,5.5C 3.22235,5.21781 2.22235,4.55114 1.5,3.5C 1.83333,2.83333 2.16667,2.16667 2.5,1.5 Z"/></g>
<g><path style="opacity:1" fill="#d4a4a9" d="M 23.5,0.5 C 23.5,1.16667 23.5,1.83333 23.5,2.5C 22.0413,2.43255 20.7079,2.76589 19.5,3.5C 17.8333,2.83333 16.1667,2.16667 14.5,1.5C 14.8333,1.5 15.1667,1.5 15.5,1.5C 18.2788,1.72137 20.9455,1.38803 23.5,0.5 Z"/></g>
<g><path style="opacity:1" fill="#bb434e" d="M 9.5,3.5 C 9.5,3.16667 9.5,2.83333 9.5,2.5C 12.7861,3.20713 16.1194,3.54046 19.5,3.5C 20.7079,2.76589 22.0413,2.43255 23.5,2.5C 23.5,2.83333 23.5,3.16667 23.5,3.5C 18.8333,4.83333 14.1667,4.83333 9.5,3.5 Z"/></g>
<g><path style="opacity:1" fill="#f1dcdf" d="M 9.5,3.5 C 14.1667,4.83333 18.8333,4.83333 23.5,3.5C 23.5,3.83333 23.5,4.16667 23.5,4.5C 18.9296,5.44104 14.263,5.77438 9.5,5.5C 9.5,4.83333 9.5,4.16667 9.5,3.5 Z"/></g>
<g><path style="opacity:1" fill="#696890" d="M 1.5,3.5 C 2.22235,4.55114 3.22235,5.21781 4.5,5.5C 5.16667,5.5 5.5,5.83333 5.5,6.5C 4.83333,6.83333 4.16667,7.16667 3.5,7.5C 2.60895,6.89022 1.60895,6.55688 0.5,6.5C 1.10272,5.36524 1.43605,4.36524 1.5,3.5 Z"/></g>
<g><path style="opacity:1" fill="#c76b73" d="M 23.5,4.5 C 23.5,5.5 23.5,6.5 23.5,7.5C 22.5,7.5 21.5,7.5 20.5,7.5C 16.8019,7.44759 13.1352,7.11425 9.5,6.5C 9.5,6.16667 9.5,5.83333 9.5,5.5C 14.263,5.77438 18.9296,5.44104 23.5,4.5 Z"/></g>
<g><path style="opacity:1" fill="#5c5b84" d="M -0.5,6.5 C -0.166667,6.5 0.166667,6.5 0.5,6.5C 1.60895,6.55688 2.60895,6.89022 3.5,7.5C 3.5,7.83333 3.5,8.16667 3.5,8.5C 2.16667,8.83333 0.833333,9.16667 -0.5,9.5C -0.5,8.5 -0.5,7.5 -0.5,6.5 Z"/></g>
<g><path style="opacity:1" fill="#5e5782" d="M 5.5,6.5 C 6.56764,7.43448 7.90097,7.76781 9.5,7.5C 9.5,7.83333 9.5,8.16667 9.5,8.5C 7.5,8.5 5.5,8.5 3.5,8.5C 3.5,8.16667 3.5,7.83333 3.5,7.5C 4.16667,7.16667 4.83333,6.83333 5.5,6.5 Z"/></g>
<g><path style="opacity:1" fill="#f1dee0" d="M 9.5,7.5 C 9.5,7.16667 9.5,6.83333 9.5,6.5C 13.1352,7.11425 16.8019,7.44759 20.5,7.5C 20.5,7.83333 20.5,8.16667 20.5,8.5C 16.7852,8.57695 13.1185,8.24362 9.5,7.5 Z"/></g>
<g><path style="opacity:1" fill="#b0545b" d="M 20.5,7.5 C 21.5,7.5 22.5,7.5 23.5,7.5C 23.5,8.83333 23.5,10.1667 23.5,11.5C 22.5,11.5 21.5,11.5 20.5,11.5C 20.5,11.1667 20.5,10.8333 20.5,10.5C 23.1667,10.1667 23.1667,9.83333 20.5,9.5C 20.5,9.16667 20.5,8.83333 20.5,8.5C 20.5,8.16667 20.5,7.83333 20.5,7.5 Z"/></g>
<g><path style="opacity:1" fill="#b53842" d="M 9.5,8.5 C 9.5,8.16667 9.5,7.83333 9.5,7.5C 13.1185,8.24362 16.7852,8.57695 20.5,8.5C 20.5,8.83333 20.5,9.16667 20.5,9.5C 16.7307,9.75599 13.0641,9.42266 9.5,8.5 Z"/></g>
<g><path style="opacity:1" fill="#e7d6d9" d="M 3.5,8.5 C 5.5,8.5 7.5,8.5 9.5,8.5C 13.0641,9.42266 16.7307,9.75599 20.5,9.5C 23.1667,9.83333 23.1667,10.1667 20.5,10.5C 19.8333,10.5 19.1667,10.5 18.5,10.5C 16.8333,10.5 15.1667,10.5 13.5,10.5C 8.81359,9.38239 4.14692,9.38239 -0.5,10.5C -0.5,10.1667 -0.5,9.83333 -0.5,9.5C 0.833333,9.16667 2.16667,8.83333 3.5,8.5 Z"/></g>
<g><path style="opacity:1" fill="#c5616a" d="M 13.5,10.5 C 13.5,10.8333 13.5,11.1667 13.5,11.5C 8.73704,11.2256 4.07037,11.559 -0.5,12.5C -0.5,11.8333 -0.5,11.1667 -0.5,10.5C 4.14692,9.38239 8.81359,9.38239 13.5,10.5 Z"/></g>
<g><path style="opacity:1" fill="#efd6d9" d="M 13.5,11.5 C 13.5,11.8333 13.5,12.1667 13.5,12.5C 13.5,12.8333 13.5,13.1667 13.5,13.5C 9.36701,12.2737 5.36701,12.2737 1.5,13.5C 0.833333,13.5 0.166667,13.5 -0.5,13.5C -0.5,13.1667 -0.5,12.8333 -0.5,12.5C 4.07037,11.559 8.73704,11.2256 13.5,11.5 Z"/></g>
<g><path style="opacity:1" fill="#cb7882" d="M 13.5,10.5 C 15.1667,10.5 16.8333,10.5 18.5,10.5C 17.5,11.1667 16.5,11.8333 15.5,12.5C 14.8333,12.5 14.1667,12.5 13.5,12.5C 13.5,12.1667 13.5,11.8333 13.5,11.5C 13.5,11.1667 13.5,10.8333 13.5,10.5 Z"/></g>
<g><path style="opacity:1" fill="#c4626e" d="M 18.5,10.5 C 19.1667,10.5 19.8333,10.5 20.5,10.5C 20.5,10.8333 20.5,11.1667 20.5,11.5C 19.0813,12.4511 17.4147,12.7845 15.5,12.5C 16.5,11.8333 17.5,11.1667 18.5,10.5 Z"/></g>
<g><path style="opacity:1" fill="#af2d39" d="M 1.5,13.5 C 5.36701,12.2737 9.36701,12.2737 13.5,13.5C 16.1667,13.5 18.8333,13.5 21.5,13.5C 21.5,13.8333 21.5,14.1667 21.5,14.5C 14.8259,14.2871 8.15925,13.9538 1.5,13.5 Z"/></g>
<g><path style="opacity:1" fill="#f0dee0" d="M 20.5,11.5 C 21.5,11.5 22.5,11.5 23.5,11.5C 23.5,11.8333 23.5,12.1667 23.5,12.5C 22.5084,12.3284 21.8417,12.6618 21.5,13.5C 18.8333,13.5 16.1667,13.5 13.5,13.5C 13.5,13.1667 13.5,12.8333 13.5,12.5C 14.1667,12.5 14.8333,12.5 15.5,12.5C 17.4147,12.7845 19.0813,12.4511 20.5,11.5 Z"/></g>
<g><path style="opacity:1" fill="#d6a5aa" d="M -0.5,13.5 C 0.166667,13.5 0.833333,13.5 1.5,13.5C 8.15925,13.9538 14.8259,14.2871 21.5,14.5C 21.9382,14.4346 22.2716,14.6012 22.5,15C 21.5842,15.2784 20.9175,15.7784 20.5,16.5C 16.4659,16.4955 12.4659,16.1621 8.5,15.5C 5.39147,15.2641 2.39147,15.5975 -0.5,16.5C -0.5,15.5 -0.5,14.5 -0.5,13.5 Z"/></g>
<g><path style="opacity:0.694" fill="#8d1f2d" d="M 8.5,15.5 C 8.5,15.8333 8.5,16.1667 8.5,16.5C 6.26465,16.2053 4.26465,16.5386 2.5,17.5C 1.5,17.5 0.5,17.5 -0.5,17.5C -0.5,17.1667 -0.5,16.8333 -0.5,16.5C 2.39147,15.5975 5.39147,15.2641 8.5,15.5 Z"/></g>
<g><path style="opacity:0.97" fill="#7f1622" d="M 8.5,16.5 C 8.5,16.1667 8.5,15.8333 8.5,15.5C 12.4659,16.1621 16.4659,16.4955 20.5,16.5C 20.5,16.8333 20.5,17.1667 20.5,17.5C 16.8333,17.5 13.1667,17.5 9.5,17.5C 9.5,16.8333 9.16667,16.5 8.5,16.5 Z"/></g>
<g><path style="opacity:0.447" fill="#8c3438" d="M 23.5,12.5 C 23.5,13.8333 23.5,15.1667 23.5,16.5C 22.8333,16.5 22.5,16.8333 22.5,17.5C 21.8333,17.5 21.1667,17.5 20.5,17.5C 20.5,17.1667 20.5,16.8333 20.5,16.5C 20.9175,15.7784 21.5842,15.2784 22.5,15C 22.2716,14.6012 21.9382,14.4346 21.5,14.5C 21.5,14.1667 21.5,13.8333 21.5,13.5C 21.8417,12.6618 22.5084,12.3284 23.5,12.5 Z"/></g>
</svg>
